<?xml version="1.0" encoding="UTF-8"?>
<svg xmlns="http://www.w3.org/2000/svg" xmlns:xlink="http://www.w3.org/1999/xlink" version="1.1" viewBox="0 0 432 432">
  <defs>
    <style>
      .cls-1 {
        fill: none;
      }

      .cls-2 {
        font-size: 12px;
      }

      .cls-2, .cls-3, .cls-4, .cls-5, .cls-6 {
        fill: #fff;
      }

      .cls-2, .cls-7, .cls-5, .cls-6 {
        isolation: isolate;
      }

      .cls-2, .cls-5, .cls-6 {
        font-family: Inter-Bold, Inter;
        font-weight: 700;
      }

      .cls-3, .cls-8, .cls-9 {
        fill-rule: evenodd;
      }

      .cls-10 {
        fill: gray;
      }

      .cls-11 {
        fill: #5fb3cc;
        stroke: #231f20;
        stroke-miterlimit: 10;
      }

      .cls-8 {
        fill: #231f20;
      }

      .cls-5 {
        font-size: 40px;
      }

      .cls-6 {
        font-size: 18px;
      }

      .cls-9 {
        fill: #939598;
      }

      .cls-12 {
        clip-path: url(#clippath);
      }
    </style>
    <clipPath id="clippath">
      <rect class="cls-1" x="-1.5" width="432" height="432"/>
    </clipPath>
  </defs>
  <!-- Generator: Adobe Illustrator 28.6.0, SVG Export Plug-In . SVG Version: 1.2.0 Build 709)  -->
  <g>
    <g id="Layer_1">
      <g id="Layer_1-2" data-name="Layer_1">
        <rect class="cls-11" y=".5" width="432" height="432"/>
        <g class="cls-12">
          <g>
            <g id="rear_small_waves">
              <path class="cls-4" d="M445.8,345c-3.9-4.8-8.3-10.3-17.2-10.3s0,0,0,0h0c-8.8,0-13.3,5.5-17.2,10.3-3.6,4.5-6.5,8-12.3,8s-8.7-3.5-12.4-8c-3.9-4.8-8.3-10.3-17.2-10.3s0,0,0,0h0c-8.8,0-13.3,5.5-17.2,10.3-3.6,4.5-6.5,8-12.4,8s-8.8-3.5-12.4-8c-3.9-4.8-8.3-10.3-17.2-10.3s-13.3,5.5-17.2,10.3c-3.6,4.5-6.5,8-12.4,8h0c-5.9,0-8.8-3.5-12.4-8-3.9-4.8-8.3-10.3-17.2-10.3s0,0,0,0h0c-8.8,0-13.3,5.5-17.2,10.3-3.6,4.5-6.5,8-12.3,8s-8.7-3.5-12.4-8c-3.9-4.8-8.3-10.3-17.2-10.3s0,0,0,0h0c-8.8,0-13.3,5.5-17.2,10.3-3.6,4.5-6.5,8-12.4,8s-8.8-3.5-12.4-8c-3.9-4.8-8.3-10.3-17.2-10.3s-13.3,5.5-17.2,10.3c-3.6,4.5-6.5,8-12.4,8h0c-5.9,0-8.8-3.5-12.4-8-3.9-4.8-8.3-10.3-17.2-10.3s0,0,0,0h0c-8.8,0-13.3,5.5-17.2,10.3-3.6,4.5-6.5,8-12.3,8s-8.7-3.5-12.4-8c-3.9-4.8-8.3-10.3-17.2-10.3s0,0,0,0h0c-8.8,0-13.3,5.5-17.2,10.3-3.6,4.5-6.5,8-12.4,8s-8.8-3.5-12.4-8c-3.9-4.8-8.3-10.3-17.2-10.3s-13.3,5.5-17.2,10.3c-3.6,4.5-6.5,8-12.4,8v6.1c8.8,0,13.3-5.5,17.2-10.3,3.6-4.5,6.5-8,12.4-8s8.8,3.5,12.4,8c3.9,4.8,8.3,10.3,17.2,10.3s.1,0,.2,0h0c8.8,0,13.3-5.5,17.2-10.3,3.6-4.5,6.5-8,12.3-8s8.7,3.6,12.3,8c3.9,4.8,8.3,10.3,17.2,10.3s0,0,0,0h0c8.8,0,13.3-5.5,17.2-10.3,3.6-4.5,6.5-8,12.3-8s8.7,3.6,12.3,8c3.9,4.8,8.3,10.3,17.2,10.3h0c8.8,0,13.3-5.5,17.2-10.3,3.6-4.5,6.5-8,12.4-8s8.8,3.5,12.4,8c3.9,4.8,8.3,10.3,17.2,10.3s.1,0,.2,0h0c8.8,0,13.3-5.5,17.2-10.3,3.6-4.5,6.5-8,12.3-8s8.7,3.6,12.3,8c3.9,4.8,8.3,10.3,17.2,10.3s0,0,0,0h0c8.8,0,13.3-5.5,17.2-10.3,3.6-4.5,6.5-8,12.3-8s8.7,3.6,12.3,8c3.9,4.8,8.3,10.3,17.2,10.3h.1c8.8,0,13.3-5.5,17.2-10.3,3.6-4.5,6.5-8,12.4-8s8.8,3.5,12.4,8c3.9,4.8,8.3,10.3,17.2,10.3s.1,0,.2,0h0c8.8,0,13.3-5.5,17.2-10.3,3.6-4.5,6.5-8,12.3-8s8.7,3.6,12.3,8c3.9,4.8,8.3,10.3,17.2,10.3s0,0,0,0h0c8.8,0,13.3-5.5,17.2-10.3,3.6-4.5,6.5-8,12.3-8s8.7,3.6,12.3,8c3.9,4.8,8.3,10.3,17.2,10.3h.1v-6.1c-5.9,0-8.8-3.5-12.4-8h0Z"/>
              <path class="cls-4" d="M445.3,321.2c-3.9-4.8-8.3-10.3-17.2-10.3s0,0,0,0h0c-8.8,0-13.3,5.5-17.2,10.3-3.6,4.5-6.5,8-12.3,8s-8.7-3.5-12.4-8c-3.9-4.8-8.3-10.3-17.2-10.3s0,0,0,0h0c-8.8,0-13.3,5.5-17.2,10.3-3.6,4.5-6.5,8-12.4,8s-8.8-3.5-12.4-8c-3.9-4.8-8.3-10.3-17.2-10.3s-13.3,5.5-17.2,10.3c-3.6,4.5-6.5,8-12.4,8h0c-5.9,0-8.8-3.5-12.4-8-3.9-4.8-8.3-10.3-17.2-10.3s0,0,0,0h0c-8.8,0-13.3,5.5-17.2,10.3-3.6,4.5-6.5,8-12.3,8s-8.7-3.5-12.4-8c-3.9-4.8-8.3-10.3-17.2-10.3s0,0,0,0h0c-8.8,0-13.3,5.5-17.2,10.3-3.6,4.5-6.5,8-12.4,8s-8.8-3.5-12.4-8c-3.9-4.8-8.3-10.3-17.2-10.3s-13.3,5.5-17.2,10.3c-3.6,4.5-6.5,8-12.4,8h0c-5.9,0-8.8-3.5-12.4-8-3.9-4.8-8.3-10.3-17.2-10.3s0,0,0,0h0c-8.8,0-13.3,5.5-17.2,10.3-3.6,4.5-6.5,8-12.3,8s-8.7-3.5-12.4-8c-3.9-4.8-8.3-10.3-17.2-10.3s0,0,0,0h0c-8.8,0-13.3,5.5-17.2,10.3-3.6,4.5-6.5,8-12.4,8s-8.8-3.5-12.4-8c-3.9-4.8-8.3-10.3-17.2-10.3s-13.3,5.5-17.2,10.3c-3.6,4.5-6.5,8-12.4,8v6.1c8.8,0,13.3-5.5,17.2-10.3,3.6-4.5,6.5-8,12.4-8s8.8,3.5,12.4,8c3.9,4.8,8.3,10.3,17.2,10.3s.1,0,.2,0h0c8.8,0,13.3-5.5,17.2-10.3,3.6-4.5,6.5-8,12.3-8s8.7,3.6,12.3,8c3.9,4.8,8.3,10.3,17.2,10.3s0,0,0,0h0c8.8,0,13.3-5.5,17.2-10.3,3.6-4.5,6.5-8,12.3-8s8.7,3.6,12.3,8c3.9,4.8,8.3,10.3,17.2,10.3h0c8.8,0,13.3-5.5,17.2-10.3,3.6-4.5,6.5-8,12.4-8s8.8,3.5,12.4,8c3.9,4.8,8.3,10.3,17.2,10.3s.1,0,.2,0h0c8.8,0,13.3-5.5,17.2-10.3,3.6-4.5,6.5-8,12.3-8s8.7,3.6,12.3,8c3.9,4.8,8.3,10.3,17.2,10.3s0,0,0,0h0c8.8,0,13.3-5.5,17.2-10.3,3.6-4.5,6.5-8,12.3-8s8.7,3.6,12.3,8c3.9,4.8,8.3,10.3,17.2,10.3h.1c8.8,0,13.3-5.5,17.2-10.3,3.6-4.5,6.5-8,12.4-8s8.8,3.5,12.4,8c3.9,4.8,8.3,10.3,17.2,10.3s.1,0,.2,0h0c8.8,0,13.3-5.5,17.2-10.3,3.6-4.5,6.5-8,12.3-8s8.7,3.6,12.3,8c3.9,4.8,8.3,10.3,17.2,10.3s0,0,0,0h0c8.8,0,13.3-5.5,17.2-10.3,3.6-4.5,6.5-8,12.3-8s8.7,3.6,12.3,8c3.9,4.8,8.3,10.3,17.2,10.3h.1v-6.1c-5.9,0-8.8-3.5-12.4-8h0Z"/>
            </g>
            <g>
              <path class="cls-4" d="M90.6,367.7c3.6,4.5,6.5,8,12.4,8h0c5.9,0,8.8-3.5,12.4-8,3.9-4.8,8.3-10.3,17.2-10.3s13.3,5.5,17.2,10.3c3.6,4.5,6.5,8,12.4,8s8.8-3.5,12.4-8c3.9-4.8,8.3-10.3,17.2-10.3s0,0,0,0h0c8.8,0,13.3,5.5,17.2,10.3,3.6,4.5,6.5,8,12.4,8s8.7-3.6,12.3-8c3.9-4.8,8.3-10.3,17.2-10.3s0,0,0,0h0c8.8,0,13.3,5.5,17.2,10.3,3.6,4.5,6.5,8,12.4,8h0c5.9,0,8.8-3.5,12.4-8,3.9-4.8,8.3-10.3,17.2-10.3s8.8,1.9,11.7,4.4l25.5-195.6-238.3-31-29.1,223.4c4.8,1.9,7.9,5.6,10.7,9.1h0Z"/>
              <path class="cls-4" d="M310.2,357.5c-8.8,0-13.3,5.5-17.2,10.3-3.6,4.5-6.5,8-12.4,8h0c-5.9,0-8.8-3.5-12.4-8-3.9-4.8-8.3-10.3-17.2-10.3s0,0,0,0h0c-8.8,0-13.3,5.5-17.2,10.3-3.6,4.5-6.5,8-12.3,8s-8.7-3.5-12.4-8c-3.9-4.8-8.3-10.3-17.2-10.3s0,0,0,0h0c-8.8,0-13.3,5.5-17.2,10.3-3.6,4.5-6.5,8-12.4,8s-8.8-3.5-12.4-8c-3.9-4.8-8.3-10.3-17.2-10.3s-13.3,5.5-17.2,10.3c-3.6,4.5-6.5,8-12.4,8h0c-5.9,0-8.8-3.5-12.4-8-2.8-3.5-5.9-7.3-10.7-9.1l-.8,6.4c2.5,1.4,4.4,3.8,6.6,6.5,3.9,4.8,8.3,10.3,17.2,10.3h0c8.8,0,13.3-5.5,17.2-10.3,3.6-4.5,6.5-8,12.4-8s8.8,3.5,12.4,8c3.9,4.8,8.3,10.3,17.2,10.3s.1,0,.2,0h0c8.8,0,13.3-5.5,17.2-10.3,3.6-4.5,6.5-8,12.3-8s8.7,3.6,12.3,8c3.9,4.8,8.3,10.3,17.2,10.3s0,0,0,0h0c8.8,0,13.3-5.5,17.2-10.3,3.6-4.5,6.5-8,12.3-8s8.7,3.6,12.3,8c3.9,4.8,8.3,10.3,17.2,10.3h.1c8.8,0,13.3-5.5,17.2-10.3,3.6-4.5,6.5-8,12.4-8s7.8,2.5,10.7,6l1-7.7c-2.9-2.5-6.6-4.4-11.7-4.4h0Z"/>
              <path class="cls-4" d="M227.6,274.4c-5.2,0-10.5-.3-15.7-1-31.8-4.1-60.1-20.4-79.7-45.9s-28.1-57-23.9-88.8c7.8-59.7,58.9-104.7,119-104.7s10.5.3,15.7,1c31.8,4.1,60.1,20.4,79.7,45.9s28.1,57,23.9,88.8c-7.8,59.7-58.9,104.7-119,104.7h0Z"/>
              <path class="cls-10" d="M90.6,367.7c3.6,4.5,6.5,8,12.4,8h0c5.9,0,8.8-3.5,12.4-8,3.9-4.8,8.3-10.3,17.2-10.3s13.3,5.5,17.2,10.3c3.6,4.5,6.5,8,12.4,8s8.8-3.5,12.4-8c3.9-4.8,8.3-10.3,17.2-10.3s0,0,0,0h0c8.8,0,13.3,5.5,17.2,10.3,3.6,4.5,6.5,8,12.4,8s8.7-3.6,12.3-8c3.9-4.8,8.3-10.3,17.2-10.3s0,0,0,0h0c8.8,0,13.3,5.5,17.2,10.3,3.6,4.5,6.5,8,12.4,8h0c5.9,0,8.8-3.5,12.4-8,3.9-4.8,8.3-10.3,17.2-10.3s6.1.8,8.4,2l24.8-190.2-231.2-30.1-28.8,221.2c3,2,5.2,4.8,7.3,7.3h0Z"/>
              <path class="cls-10" d="M310.2,357.5c-8.8,0-13.3,5.5-17.2,10.3-3.6,4.5-6.5,8-12.4,8h0c-5.9,0-8.8-3.5-12.4-8-3.9-4.8-8.3-10.3-17.2-10.3s0,0,0,0h0c-8.8,0-13.3,5.5-17.2,10.3-3.6,4.5-6.5,8-12.3,8s-8.7-3.5-12.4-8c-3.9-4.8-8.3-10.3-17.2-10.3s0,0,0,0h0c-8.8,0-13.3,5.5-17.2,10.3-3.6,4.5-6.5,8-12.4,8s-8.8-3.5-12.4-8c-3.9-4.8-8.3-10.3-17.2-10.3s-13.3,5.5-17.2,10.3c-3.6,4.5-6.5,8-12.4,8h0c-5.9,0-8.8-3.5-12.4-8-2.1-2.6-4.3-5.3-7.3-7.3l-.9,7.3c1.1,1.1,2.2,2.5,3.3,3.9,3.9,4.8,8.3,10.3,17.2,10.3h0c8.8,0,13.3-5.5,17.2-10.3,3.6-4.5,6.5-8,12.4-8s8.8,3.5,12.4,8c3.9,4.8,8.3,10.3,17.2,10.3s.1,0,.2,0h0c8.8,0,13.3-5.5,17.2-10.3,3.6-4.5,6.5-8,12.3-8s8.7,3.6,12.3,8c3.9,4.8,8.3,10.3,17.2,10.3s0,0,0,0h0c8.8,0,13.3-5.5,17.2-10.3,3.6-4.5,6.5-8,12.3-8s8.7,3.6,12.3,8c3.9,4.8,8.3,10.3,17.2,10.3h.1c8.8,0,13.3-5.5,17.2-10.3,3.6-4.5,6.5-8,12.4-8s5.5,1,7.5,2.7l.9-6.7c-2.3-1.3-5-2-8.4-2v-.2Z"/>
              <circle class="cls-10" cx="227.5" cy="154.3" r="116.6"/>
            </g>
            <path class="cls-3" d="M195.9,258.3c-1.8-.2-2.8.5-3.1,2.3-.1,1-.3,2-.4,3-.3,2.5.3,3.6,2.8,3.9,8.2,1.1,33.3,4.1,37.7,4.6,2,.3,2.9-.4,3.2-2.5.2-1.1.3-2.2.4-3.2.2-2.1-.4-3.2-2.4-3.4-6.3-.8-31.8-3.9-38.2-4.7h0Z"/>
            <path class="cls-3" d="M244.8,349c-26.9-3.5-54-6.5-81.2-10,.5-.3,2.9-1.6,3.7-2,3.6-1.8,4.5-2,9.6-1.4,19,2.6,39.7,5.2,58.7,7.7.9.1,1.8.5,2.5.9,2.3,1.4,6.7,4.7,6.6,4.8h0Z"/>
            <path class="cls-9" d="M221.7,244c.3-2.5-1.4-4.7-3.9-5-2.4-.3-4.6,1.5-5,3.8-.4,2.4,1.4,4.7,3.8,5.1,2.4.3,4.7-1.4,5-3.9h0Z"/>
            <polygon class="cls-9" points="300.5 221.7 223.3 212.2 227.7 176.1 305 185.6 289.6 202 300.5 221.7"/>
            <path class="cls-3" d="M220.5,237.7h-.2l-4.5-.6c-.5,0-.9-.3-1.2-.7s-.4-.9-.4-1.3l7.6-61.9c0-.5.3-.9.7-1.2.3-.2.7-.4,1.1-.4s.1,0,.2,0l4.5.6c1,.1,1.7,1,1.6,2v.2l75.3,9.3c.7,0,1.2.5,1.5,1.2.2.6,0,1.3-.4,1.8l-14.5,15.5,10.3,18.6c.3.6.3,1.3,0,1.9-.3.5-.9.8-1.5.8s-.1,0-.2,0l-75.3-9.3-2.7,21.9c-.1.9-.9,1.6-1.8,1.6h0Z"/>
            <polygon class="cls-8" points="289.6 202 305 185.6 227.9 176.1 228.1 174 223.6 173.5 216 235.4 220.5 235.9 223.4 212.2 300.5 221.7 289.6 202"/>
            <polygon class="cls-9" points="300.5 221.7 223.3 212.2 227.7 176.1 305 185.6 289.6 202 300.5 221.7"/>
            <g>
              <path class="cls-4" d="M236,194.8h0c.7-5.8,4.8-9.9,10.1-9.2,5.2.6,8.2,5.5,7.5,11.3h0c-.7,5.8-4.8,9.9-10.1,9.2s-8.2-5.5-7.5-11.3ZM249.2,196.5h0c.4-3.7-1-6.6-3.6-6.9-2.6-.3-4.6,2.1-5.1,5.7h0c-.4,3.7,1,6.6,3.6,6.9,2.6.3,4.6-2.1,5.1-5.7Z"/>
              <path class="cls-4" d="M253.8,209.9c2,0,3.1-.8,3.1-2.5l-1.8-.2.6-4.5,4.6.6-.5,3.8c-.5,3.7-2.5,5-5.9,4.7v-1.8h0Z"/>
              <path class="cls-4" d="M263.7,198.2h0c.7-5.8,4.8-9.9,10.1-9.2,5.2.6,8.2,5.5,7.5,11.3h0c-.7,5.8-4.8,9.9-10.1,9.2-5.3-.7-8.2-5.5-7.5-11.3ZM276.9,199.9h0c.4-3.7-1-6.6-3.6-6.9-2.6-.3-4.6,2.1-5.1,5.7h0c-.4,3.7,1,6.6,3.6,6.9,2.6.3,4.6-2.1,5.1-5.7Z"/>
            </g>
            <g>
              <g>
                <path class="cls-3" d="M182.4,360.1c-.3-.4-.7-.6-1.2-.7h-.6c-3.7-.5-7.3-1-11-1.5-6.1-.8-10.7-7.6-11.8-13.9,15.3,2,30.8,3.8,45.8,5.6,15,1.8,30.5,3.7,45.8,5.6-.2.5-.4,1-.7,1.6-.1.3-.2.6-.2.8.8,0,1.5-.2,2.4-.2s0,0,0,0h0c2.1,0,3.9.3,5.5.8.5-1.4.9-2.8,1.2-4.1.6-3,.2-3.9-2.3-5.6l-4-2.7c-3.2-2.1-6.4-4.3-9.6-6.5-.1,0-.3-.4-.4-.5-2.5-18.7-5-37.6-7.4-56l-.6-4.7h.3c3.9,0,7-2.4,8-6.1.3-1.1.4-2.2.6-3.3,0-.4,0-.8.1-1.2.4-2.8,0-5.3-1.4-7.1-1.3-1.9-3.5-3.2-6.3-3.5-2.8-.4-5.6-.7-8.3-1-2.3-.3-4.5-.5-6.8-.8,0-.5.1-.9.1-1.4v-.2h.3c4.1-1.2,6.8-4.1,7.5-8.4.7-4.2-.8-7.8-4.3-10.2-1.9-1.3-3.9-2-6-2s-3.3.4-4.9,1.3c-3.7,1.9-5.7,5.2-5.7,9.4s1.8,6.9,5.3,9.1h0c0,.5-.1,1-.2,1.6-2.1-.3-4.1-.5-6.2-.7-2.9-.3-5.9-.7-8.8-1.1-.5,0-1.1-.1-1.6-.1-4.6,0-7.9,3-8.6,7.9v.9c-.2,1-.4,2-.5,3-.5,4.3,2.3,8.1,6.5,8.9l-6.3,15.3c-5.6,13.7-11.3,27.5-16.9,41.2-.1.4-.2.4-.6.6-2.3.8-4.7,1.6-7,2.4-2.9,1-5.8,2-8.6,3-2.2.7-3.4,2.3-3.5,4.6-.6,9.3,4.7,21.4,14.3,24.8.5.2,1,.4,1.5.5l.7.3h.4c2.5.3,5,.6,7.5.9l1.2.2c2-2.4,4.2-4.9,7-6.7h.3ZM214.7,243.1c.2-1.3,1.4-2.3,2.7-2.3s.2,0,.3,0c.7,0,1.3.4,1.7,1s.6,1.3.5,2c-.2,1.3-1.3,2.4-2.6,2.4s-.2,0-.4,0c-.7,0-1.3-.5-1.8-1.1-.4-.6-.6-1.3-.5-1.9h.1ZM194.2,263.8v-.5c.2-.8.3-1.7.4-2.5.1-.8.3-.8.7-.8h.4c3.1.4,10.6,1.3,18.3,2.2,8.2,1,16.7,2,19.9,2.5.9.1,1,.1.9,1.4-.1,1.1-.3,2.1-.4,3.2-.1.7-.3.9-.3.9h-.9c-1.3-.2-4.7-.6-8.9-1.1-9.2-1.1-23.2-2.8-28.8-3.6-1.3-.2-1.5-.2-1.3-1.9v.2ZM222.1,307.9c2.5.3,5,.6,7.5.9.9,7,1.8,14.1,2.8,21.1l.9,6.9c-5-.6-10-1.2-15-1.9-2.9-.4-5.8-.7-8.8-1.1.9-6.6,1.7-13.2,2.6-19.9l.9-7.2c3,.4,6,.8,9.1,1.1h0ZM214.1,298.9l.4-3c.8-5.9,2-15.5,2.6-19.9h0c2.8.4,5.6.7,8.3,1,1,8.1,2.4,19.1,3,23.7-2.3-.3-4.6-.6-6.9-.8-2.5-.3-5-.6-7.5-.9h0ZM192.1,295.6c.4-1,.8-2,1.2-3l2.1-5.2c1.8-4.5,3.7-9,5.5-13.5,1.7.2,3.2.4,4.8.6,1.2.1,2.4.3,3.6.4-.5,3.5-1.1,8.2-1.6,12.6-.5,4-1,8.1-1.3,10.4-2.4-.3-4.9-.6-7.4-.9-2.3-.3-4.7-.6-7.1-.9,0-.2.2-.4.2-.6h0ZM178.2,329.4l10.5-25.6c3.2.4,6.5.8,9.7,1.2,2.3.3,4.6.5,6.8.8l-3.5,27.1-12-1.5c-3.9-.5-7.8-.9-11.8-1.4,0-.2.2-.5.2-.6h.1ZM173.2,337.1c.8,0,1.9,0,3.5.3,12.2,1.7,25.1,3.3,37.7,5,7.1.9,14.2,1.8,21,2.7.6,0,1.3.3,1.8.7.3.2.6.4.9.6l-68.6-8.4c1.4-.6,2.4-.8,3.7-.8h0Z"/>
                <path class="cls-3" d="M250.9,357.5h0c-.8,0-1.6,0-2.4.2,0,.3,0,.7.3.9.3.5.9.8,1.5.8s.3,0,.3,0h.2c1.2,0,2.3.1,3.5.4h.4c.7,0,1.4-.4,1.7-1.1,0-.1,0-.2.1-.3-1.6-.5-3.5-.8-5.5-.8s0,0,0,0h-.1Z"/>
                <path class="cls-3" d="M176.8,366.9c.5,0,1-.2,1.4-.6,1.4-1.6,2.6-2.8,3.9-3.8.6-.4.8-1.2.6-1.9,0-.2-.2-.4-.3-.6-2.9,1.8-5.1,4.3-7,6.7l1.2.2h.2Z"/>
                <path class="cls-8" d="M180.9,361.1c-3.8-.5-7.7-1-11.5-1.5-7.3-1-12.5-9-13.4-16.1,0-.5,0-1-.1-1.7,32,4.2,63.8,7.6,95.6,11.8,0,.4-.1,1.4-.2,1.7-.3.7-.6,1.5-.9,2.2h.5c.2,0,0,0,0,0h0c1.4,0,2.6.1,3.8.4.5-1.3.9-2.7,1.2-4,.5-2.3.4-2.5-1.5-3.8-4.6-3.1-9.1-6.1-13.6-9.2-.5-.4-1-1.1-1.1-1.7-2.8-20.5-5.5-41-8.2-61.5v-1.3c.6,0,1,0,1.4.1,3.4.4,6.3-1.4,7.2-4.7.4-1.4.5-2.8.7-4.3.7-4.8-1.5-8-6.2-8.7-5-.7-10.1-1.2-15.1-1.9-.5,0-1.1,0-1.8-.2.1-1.1.3-2,.4-3,0-1.1.5-1.6,1.6-1.9,3.5-1,5.6-3.4,6.2-6.9.6-3.5-.6-6.4-3.5-8.5-2.8-2-5.9-2.2-9-.6-3.1,1.6-4.7,4.3-4.7,7.8s1.6,5.8,4.4,7.5c.4.2,1,.7.9,1,0,1.4-.3,2.7-.5,4.1-.4,0-.6,0-.9-.1-5.3-.7-10.6-1.2-15.9-2-4.5-.6-7.6,1.7-8.1,6.2-.2,1.3-.3,2.6-.5,3.9-.4,3.4,1.9,6.5,5.4,7,.5,0,1.1.1,1.8.2-.2.6-.3,1-.4,1.3-7.8,19.1-15.7,38.2-23.5,57.3-.3.8-.8,1.3-1.7,1.6-5.2,1.8-10.4,3.7-15.7,5.4-1.6.5-2.2,1.5-2.3,3.1-.6,9,4.5,19.9,13.1,23,.7.3,1.5.5,2.2.8,3.3.4,6.5.8,9.8,1.2,1.2-1.4,2.6-2.8,4.1-4h0ZM235.3,338.2v.6c-.5,0-.9-.1-1.3-.2-8.3-1.1-16.6-2-24.9-3.1-1.2-.2-1.5-.6-1.3-1.8,1.2-9.3,2.4-18.7,3.6-28,0-.8,1-.9,1.3-.9,5.8.8,11.6,1.4,17.4,2.1.7,0,1.2.3,1.3,1.1,1.3,10,2.6,20,3.9,30v.2ZM212,300.5c.3-2.1,2.4-18.5,3.2-24.6.2-1.8.2-1.9,2-1.7,2.9.4,5.8.7,8.7,1.1.8,0,1.1.6,1.2,1.4,1.1,8.4,3.3,25.7,3.3,26.1-6.1-.8-12.2-1.5-18.4-2.3ZM212.9,242.8c.3-2.4,2.6-4.1,5-3.8s4.2,2.5,3.9,5-2.5,4.2-5,3.9c-2.4-.3-4.2-2.7-3.8-5.1h0ZM195.2,267.5c-2.5-.3-3.1-1.4-2.8-3.9.1-1,.2-2,.4-3,.3-1.8,1.3-2.6,3.1-2.3,6.4.8,31.9,3.9,38.2,4.7,2,.3,2.7,1.4,2.4,3.4-.1,1.1-.3,2.2-.4,3.2-.3,2.1-1.1,2.7-3.2,2.5-4.4-.5-29.5-3.6-37.7-4.6h0ZM191.6,291.9c2.5-6.2,5.1-12.4,7.6-18.6.4-.9.8-1.2,1.8-1.1,3.2.4,6.1.7,9.1,1.1.7,0,1.2.3,1,1.2-1.1,8.3-3.2,25.2-3.3,25.5-6.1-.8-12.2-1.5-18.5-2.3.8-1.9,1.5-3.9,2.3-5.7h0ZM176.5,328.7c3.5-8.7,7.1-17.3,10.7-26,.2-.6.4-.9,1.3-.7,6,.8,12,1.4,18.1,2.2h.7c-1.3,10.2-2.7,20.4-4,30.7-9.2-1.2-18.3-2.2-27.7-3.4.4-.9.7-2.1,1-2.8h-.1ZM167.3,337c3.6-1.8,4.8-2,9.7-1.4,19,2.6,39.6,5.2,58.6,7.7.9.1,1.8.5,2.5.9,2.3,1.4,6.7,4.8,6.7,4.8l-81.3-10s2.9-1.6,3.7-2h.1Z"/>
                <path class="cls-8" d="M250.9,357.5h-.5c.2.1.4.1.6.1,1.4,0,2.7.2,3.9.4h0c-1.2-.3-2.4-.5-3.8-.5s0,0,0,0h-.2Z"/>
                <path class="cls-8" d="M181,361.1h-.1c-1.6,1.2-2.9,2.6-4.1,4h0c1.2-1.4,2.6-2.8,4.2-4h0Z"/>
              </g>
              <g>
                <path class="cls-3" d="M209,367.7c1,1.3,2,2.4,3,3.5,5.7.7,11.2,1.4,16.5,2,1.8-1.4,3.4-3.4,5.2-5.5.4-.5.8-1,1.3-1.6-.2-.2-.5-.3-.9-.4-9.3-1.2-18.6-2.3-28.2-3.5h-.2c-.4,0-.8.2-1.1.4,1.6,1.6,3,3.3,4.4,5h0Z"/>
                <path class="cls-3" d="M204.2,363.4c-.3.7-.2,1.5.3,2,1.1,1.1,2.1,2.4,3,3.6.4.5.7.9,1.1,1.4.3.4.7.6,1.2.6.8,0,1.5.2,2.2.3-1-1.1-1.9-2.2-3-3.5-1.3-1.7-2.8-3.4-4.4-5-.2.2-.4.3-.5.6h0Z"/>
                <path class="cls-3" d="M228.5,373.3c.5,0,1.1.1,1.6.2h.2c.5,0,1-.2,1.3-.5,1.2-1.2,2.3-2.6,3.4-4l.2-.2c.4-.5.5-1.2.3-1.8-.1-.3-.3-.6-.6-.8-.4.5-.9,1-1.3,1.6-1.8,2.2-3.3,4.1-5.2,5.5h.1Z"/>
                <path class="cls-8" d="M210.2,369.2c6.7.8,13.4,1.6,20.1,2.5,1.1-1.2,2.2-2.5,3.4-4h.1c-9.3-1.3-18.5-2.4-27.8-3.5,1.1,1.2,2,2.4,3,3.5.4.5.8,1,1.2,1.5Z"/>
                <path class="cls-8" d="M208.9,367.8c.4.5.7.9,1.1,1.3h.3c-.4-.5-.8-1-1.2-1.5-.9-1.2-1.9-2.4-3-3.5h-.3c1.1,1.2,2.1,2.5,3.1,3.7h0Z"/>
                <path class="cls-8" d="M230.3,371.7h0c1.1-1.1,2.2-2.5,3.3-3.9,0,0,.1-.2.2-.2h-.1c-1.2,1.5-2.3,2.9-3.4,4.1Z"/>
              </g>
            </g>
            <g>
              <path class="cls-9" d="M191.8,357.5h0c6.8,0,11,3.2,14.3,6.9,9.2,1.1,18.3,2.2,27.5,3.4h0c3.8-4.7,8.2-10.1,16.7-10.3.4-.7.7-1.4.9-2.2.1-.3.2-1.7.2-1.7l-95.6-11.8v1.7c.9,7.1,6,15.3,13.3,16.2,3.8.5,7.6,1,11.3,1.4,2.8-2.2,6.3-3.8,11-3.8s0,0,0,0l.4.2Z"/>
              <path class="cls-9" d="M233.7,367.7h0c3.8-4.7,8.1-9.9,16.5-10.2h0c-8.5.1-12.8,5.4-16.7,10.2h.2Z"/>
              <path class="cls-9" d="M191.7,357.6c6.7,0,10.9,3.1,14.2,6.8h.3c-3.3-3.7-7.5-6.9-14.3-6.9s0,0,0,0h0c-4.8,0-8.2,1.6-11,3.8h.1c2.8-2.2,6.2-3.7,10.9-3.7h-.2Z"/>
            </g>
            <g id="front_small_waves">
              <path class="cls-4" d="M445.8,367.7c-3.9-4.8-8.3-10.3-17.2-10.3s0,0,0,0h0c-8.8,0-13.3,5.5-17.2,10.3-3.6,4.5-6.5,8-12.3,8s-8.7-3.5-12.4-8c-3.9-4.8-8.3-10.3-17.2-10.3s0,0,0,0h0c-8.8,0-13.3,5.5-17.2,10.3-3.6,4.5-6.5,8-12.4,8s-8.8-3.5-12.4-8c-3.9-4.8-8.3-10.3-17.2-10.3s-13.3,5.5-17.2,10.3c-3.6,4.5-6.5,8-12.4,8h0c-5.9,0-8.8-3.5-12.4-8-3.9-4.8-8.3-10.3-17.2-10.3s0,0,0,0h0c-8.8,0-13.3,5.5-17.2,10.3-3.6,4.5-6.5,8-12.3,8s-8.7-3.5-12.4-8c-3.9-4.8-8.3-10.3-17.2-10.3s0,0,0,0h0c-8.8,0-13.3,5.5-17.2,10.3-3.6,4.5-6.5,8-12.4,8s-8.8-3.5-12.4-8c-3.9-4.8-8.3-10.3-17.2-10.3s-13.3,5.5-17.2,10.3c-3.6,4.5-6.5,8-12.4,8h0c-5.9,0-8.8-3.5-12.4-8-3.9-4.8-8.3-10.3-17.2-10.3s0,0,0,0h0c-8.8,0-13.3,5.5-17.2,10.3-3.6,4.5-6.5,8-12.3,8s-8.7-3.5-12.4-8c-3.9-4.8-8.3-10.3-17.2-10.3s0,0,0,0h0c-8.8,0-13.3,5.5-17.2,10.3-3.6,4.5-6.5,8-12.4,8s-8.8-3.5-12.4-8c-3.9-4.8-8.3-10.3-17.2-10.3s-13.3,5.5-17.2,10.3c-3.6,4.5-6.5,8-12.4,8v6.1c8.8,0,13.3-5.5,17.2-10.3,3.6-4.5,6.5-8,12.4-8s8.8,3.5,12.4,8c3.9,4.8,8.3,10.3,17.2,10.3s.1,0,.2,0h0c8.8,0,13.3-5.5,17.2-10.3,3.6-4.5,6.5-8,12.3-8s8.7,3.6,12.3,8c3.9,4.8,8.3,10.3,17.2,10.3s0,0,0,0h0c8.8,0,13.3-5.5,17.2-10.3,3.6-4.5,6.5-8,12.3-8s8.7,3.6,12.3,8c3.9,4.8,8.3,10.3,17.2,10.3h0c8.8,0,13.3-5.5,17.2-10.3,3.6-4.5,6.5-8,12.4-8s8.8,3.5,12.4,8c3.9,4.8,8.3,10.3,17.2,10.3s.1,0,.2,0h0c8.8,0,13.3-5.5,17.2-10.3,3.6-4.5,6.5-8,12.3-8s8.7,3.6,12.3,8c3.9,4.8,8.3,10.3,17.2,10.3s0,0,0,0h0c8.8,0,13.3-5.5,17.2-10.3,3.6-4.5,6.5-8,12.3-8s8.7,3.6,12.3,8c3.9,4.8,8.3,10.3,17.2,10.3h.1c8.8,0,13.3-5.5,17.2-10.3,3.6-4.5,6.5-8,12.4-8s8.8,3.5,12.4,8c3.9,4.8,8.3,10.3,17.2,10.3s.1,0,.2,0h0c8.8,0,13.3-5.5,17.2-10.3,3.6-4.5,6.5-8,12.3-8s8.7,3.6,12.3,8c3.9,4.8,8.3,10.3,17.2,10.3s0,0,0,0h0c8.8,0,13.3-5.5,17.2-10.3,3.6-4.5,6.5-8,12.3-8s8.7,3.6,12.3,8c3.9,4.8,8.3,10.3,17.2,10.3h.1v-6.1c-5.9,0-8.8-3.5-12.4-8h0Z"/>
              <path class="cls-4" d="M445.8,392.1c-3.9-4.8-8.3-10.3-17.2-10.3s0,0,0,0h0c-8.8,0-13.3,5.5-17.2,10.3-3.6,4.5-6.5,8-12.3,8s-8.7-3.5-12.4-8c-3.9-4.8-8.3-10.3-17.2-10.3s0,0,0,0h0c-8.8,0-13.3,5.5-17.2,10.3-3.6,4.5-6.5,8-12.4,8s-8.8-3.5-12.4-8c-3.9-4.8-8.3-10.3-17.2-10.3s-13.3,5.5-17.2,10.3c-3.6,4.5-6.5,8-12.4,8h0c-5.9,0-8.8-3.5-12.4-8-3.9-4.8-8.3-10.3-17.2-10.3s0,0,0,0h0c-8.8,0-13.3,5.5-17.2,10.3-3.6,4.5-6.5,8-12.3,8s-8.7-3.5-12.4-8c-3.9-4.8-8.3-10.3-17.2-10.3s0,0,0,0h0c-8.8,0-13.3,5.5-17.2,10.3-3.6,4.5-6.5,8-12.4,8s-8.8-3.5-12.4-8c-3.9-4.8-8.3-10.3-17.2-10.3s-13.3,5.5-17.2,10.3c-3.6,4.5-6.5,8-12.4,8h0c-5.9,0-8.8-3.5-12.4-8-3.9-4.8-8.3-10.3-17.2-10.3s0,0,0,0h0c-8.8,0-13.3,5.5-17.2,10.3-3.6,4.5-6.5,8-12.3,8s-8.7-3.5-12.4-8c-3.9-4.8-8.3-10.3-17.2-10.3s0,0,0,0h0c-8.8,0-13.3,5.5-17.2,10.3-3.6,4.5-6.5,8-12.4,8s-8.8-3.5-12.4-8c-3.9-4.8-8.3-10.3-17.2-10.3s-13.3,5.5-17.2,10.3c-3.6,4.5-6.5,8-12.4,8v6.1c8.8,0,13.3-5.5,17.2-10.3,3.6-4.5,6.5-8,12.4-8s8.8,3.5,12.4,8c3.9,4.8,8.3,10.3,17.2,10.3s.1,0,.2,0h0c8.8,0,13.3-5.5,17.2-10.3,3.6-4.5,6.5-8,12.3-8s8.7,3.6,12.3,8c3.9,4.8,8.3,10.3,17.2,10.3s0,0,0,0h0c8.8,0,13.3-5.5,17.2-10.3,3.6-4.5,6.5-8,12.3-8s8.7,3.6,12.3,8c3.9,4.8,8.3,10.3,17.2,10.3h0c8.8,0,13.3-5.5,17.2-10.3,3.6-4.5,6.5-8,12.4-8s8.8,3.5,12.4,8c3.9,4.8,8.3,10.3,17.2,10.3s.1,0,.2,0h0c8.8,0,13.3-5.5,17.2-10.3,3.6-4.5,6.5-8,12.3-8s8.7,3.6,12.3,8c3.9,4.8,8.3,10.3,17.2,10.3s0,0,0,0h0c8.8,0,13.3-5.5,17.2-10.3,3.6-4.5,6.5-8,12.3-8s8.7,3.6,12.3,8c3.9,4.8,8.3,10.3,17.2,10.3h.1c8.8,0,13.3-5.5,17.2-10.3,3.6-4.5,6.5-8,12.4-8s8.8,3.5,12.4,8c3.9,4.8,8.3,10.3,17.2,10.3s.1,0,.2,0h0c8.8,0,13.3-5.5,17.2-10.3,3.6-4.5,6.5-8,12.3-8s8.7,3.6,12.3,8c3.9,4.8,8.3,10.3,17.2,10.3s0,0,0,0h0c8.8,0,13.3-5.5,17.2-10.3,3.6-4.5,6.5-8,12.3-8s8.7,3.6,12.3,8c3.9,4.8,8.3,10.3,17.2,10.3h.1v-6.1c-5.9,0-8.8-3.5-12.4-8h0Z"/>
            </g>
            <g class="cls-7">
              <text class="cls-5" transform="translate(177.9 102.2) rotate(7.4)"><tspan x="0" y="0">R. I. P.</tspan></text>
              <text class="cls-6" transform="translate(146.2 127.1) rotate(7.4)"><tspan x="0" y="0">NULL ISLAND BUOY</tspan></text>
              <text class="cls-2" transform="translate(195.9 148.1) rotate(7.4)"><tspan x="0" y="0">1998 - 2021</tspan></text>
            </g>
          </g>
        </g>
      </g>
    </g>
  </g>
</svg>